<svg xmlns="http://www.w3.org/2000/svg" xmlns:xlink="http://www.w3.org/1999/xlink" version="1.1" preserveAspectRatio="xMidYMid meet" viewBox="585 239 125 169"><g data-item-type="image" data-item="Image" data-logo-item="" id="logo__item--logo_0" class="logo__item">
    <g class="logo__item__inner" transform="translate(583.2051831639275 238.5) scale(0.08639309614545158 0.08639309614545158) rotate(0 0 0)">
        
<g>
	<g>
		<path fill="#616264" d="M55.5,746.8v403c0,127,103.3,230.2,230.2,230.2c6.2,0,11.2-5,11.2-11.2c0-6.2-5-11.2-11.2-11.2    c-114.6,0-207.8-93.2-207.8-207.8v-403c0-114.6,93.2-207.8,207.8-207.8c6.2,0,11.2-5,11.2-11.2c0-6.2-5-11.2-11.2-11.2    C158.7,516.6,55.5,619.9,55.5,746.8z" data-part-id="logo__item--logo_0__0"/>
	</g>
	<g>
		<path fill="#616264" d="M1203.1,527.8c0,6.2,5,11.2,11.2,11.2c114.6,0,207.8,93.2,207.8,207.8v403c0,114.6-93.2,207.8-207.8,207.8    c-6.2,0-11.2,5-11.2,11.2c0,6.2,5,11.2,11.2,11.2c126.9,0,230.2-103.3,230.2-230.2v-403c0-126.9-103.3-230.2-230.2-230.2    C1208.1,516.6,1203.1,521.6,1203.1,527.8z" data-part-id="logo__item--logo_0__1"/>
	</g>
	<path fill="#4D4D4F" d="M1114.3,943.8c0,200.7-162.7,363.3-363.4,363.3c-200.7,0-363.4-162.7-363.4-363.3   c0-200.7,162.7-363.4,363.4-363.4C951.6,580.5,1114.3,743.1,1114.3,943.8z" data-part-id="logo__item--logo_0__2"/>
	<g>
		<path d="M1044.7,832c-19.8,47-66.2,79.9-120.4,79.9c-72.1,0-130.5-58.4-130.5-130.5c0-55,34.1-102,82.2-121.2    c-38.1-16.3-80-25.3-124-25.3c-174.4,0-315.8,141.4-315.8,315.8c0,174.4,141.4,315.7,315.8,315.7c174.4,0,315.8-141.4,315.8-315.7    C1067.9,908.6,1059.6,868.6,1044.7,832z" data-part-id="logo__item--logo_0__3" fill="#fff"/>
	</g>
	<path fill="#FFFFFF" d="M965.6,748.7c0,34.8-28.2,63-63,63c-34.8,0-63-28.2-63-63c0-34.8,28.2-63,63-63   C937.4,685.7,965.6,713.9,965.6,748.7z" data-part-id="logo__item--logo_0__4"/>
	<path fill="#4D4D4F" d="M556,1149.8c-9.3,5.5-31.1-14.4-48.8-44.3c-17.7-30-24.5-58.7-15.2-64.2c9.3-5.5,31.1,14.4,48.8,44.4   C558.5,1115.6,565.3,1144.4,556,1149.8z" data-part-id="logo__item--logo_0__5"/>
	
</g>

    </g>
</g></svg>